# xmcd
#
# Track frame offsets: 
#        150
#        7469
#        32987
#        58495
#        83690
#        112763
#        136932
#        166772
#        188992
#        210424
#        233887
#        265813
#        291538
#        305381
#        329379
#
# Disc length: 4737 seconds
#
# Revision: 1
# Processed by: cddbd v1.5.2PL0 Copyright (c) Steve Scherf et al.
# Submitted via: ExactAudioCopy v0.99pb4
#
DISCID=d9127f0f
DTITLE=Various Artist - Astor Piazzolla Remixed
DYEAR=2003
DGENRE=Tango
TTITLE0=Prelude - Metier
TTITLE1=Vuelvo al sur - Koop
TTITLE2=El tango - Hi perspective
TTITLE3=Luna [full moon rmx] - Alexkid
TTITLE4=Prelude fugue VMM [zeb v piazzolla mx] - Zeb
TTITLE5=El viage - 4hero
TTITLE6=Milonga del angel - 2 banks of 4
TTITLE7=Milonga - Osunlade
TTITLE8=Revirado - John Beltran
TTITLE9=Tanguedia III - Nickodemus and Osiris
TTITLE10=Verano porteño - Nuspirit Helsinki
TTITLE11=Resurrección del angel [libertango mx] - Fantasista
TTITLE12=Calambre - John Arnold
TTITLE13=Ballada para mi muerte - Projections
TTITLE14=Duo de amor - Ricochet
EXTD=
EXTT0=
EXTT1=
EXTT2=
EXTT3=
EXTT4=
EXTT5=
EXTT6=
EXTT7=
EXTT8=
EXTT9=
EXTT10=
EXTT11=
EXTT12=
EXTT13=
EXTT14=
PLAYORDER=
